<?xml version="1.0" encoding="utf-8"?>
<!-- Generator: Adobe Illustrator 15.0.2, SVG Export Plug-In  -->
<!DOCTYPE svg PUBLIC "-//W3C//DTD SVG 1.1//EN" "http://www.w3.org/Graphics/SVG/1.1/DTD/svg11.dtd" [
	<!ENTITY ns_flows "http://ns.adobe.com/Flows/1.0/">
]>
<svg version="1.1"
	 xmlns="http://www.w3.org/2000/svg" xmlns:xlink="http://www.w3.org/1999/xlink" xmlns:a="http://ns.adobe.com/AdobeSVGViewerExtensions/3.0/"
	 x="0px" y="0px" width="386px" height="377px" viewBox="-0.242 -1.005 386 377" enable-background="new -0.242 -1.005 386 377"
	 xml:space="preserve">
<defs>
</defs>
<rect x="41.425" y="7.995" fill="#FFFFFF" width="344.333" height="343.5"/>
<line fill="none" stroke="#000000" stroke-width="2" stroke-miterlimit="10" x1="36.925" y1="179.995" x2="385.758" y2="179.995"/>
<linearGradient id="SVGID_1_" gradientUnits="userSpaceOnUse" x1="109.9766" y1="231.4077" x2="109.9766" y2="350.6499">
	<stop  offset="0" style="stop-color:#70C4C0"/>
	<stop  offset="1" style="stop-color:#4C7977"/>
</linearGradient>
<rect x="82.39" y="231.408" fill="url(#SVGID_1_)" width="55.173" height="119.242"/>
<linearGradient id="SVGID_2_" gradientUnits="userSpaceOnUse" x1="166.4766" y1="206.9077" x2="166.4766" y2="350.6499">
	<stop  offset="0" style="stop-color:#C685BA"/>
	<stop  offset="1" style="stop-color:#9C598F"/>
</linearGradient>
<rect x="138.89" y="206.908" fill="url(#SVGID_2_)" width="55.173" height="143.742"/>
<linearGradient id="SVGID_3_" gradientUnits="userSpaceOnUse" x1="262.4766" y1="244.9077" x2="262.4766" y2="350.6499">
	<stop  offset="0" style="stop-color:#70C4C0"/>
	<stop  offset="1" style="stop-color:#4C7977"/>
</linearGradient>
<rect x="234.89" y="244.908" fill="url(#SVGID_3_)" width="55.174" height="105.742"/>
<linearGradient id="SVGID_4_" gradientUnits="userSpaceOnUse" x1="318.9766" y1="26.9077" x2="318.9766" y2="350.6504">
	<stop  offset="0" style="stop-color:#C685BA"/>
	<stop  offset="1" style="stop-color:#9C598F"/>
</linearGradient>
<rect x="291.39" y="26.908" fill="url(#SVGID_4_)" width="55.174" height="323.742"/>
<line fill="none" stroke="#000000" stroke-width="2" stroke-miterlimit="10" x1="41.425" y1="7.995" x2="41.425" y2="356.995"/>
<line fill="none" stroke="#000000" stroke-width="2" stroke-miterlimit="10" x1="213.758" y1="351.329" x2="213.758" y2="356.995"/>
<line fill="none" stroke="#000000" stroke-width="2" stroke-miterlimit="10" x1="36.925" y1="351.495" x2="385.758" y2="351.495"/>
<line fill="none" stroke="#000000" stroke-width="2" stroke-miterlimit="10" x1="36.925" y1="7.495" x2="385.758" y2="7.495"/>
<path fill="#9C598F" d="M157.758,42.437v3.888h-3.708v4.068h-4.32v-4.068h-3.744v-3.888h3.744v-4.068h4.32v4.068H157.758z"/>
<path fill="#9C598F" d="M160.854,57.161c0-1.08,0.084-2.058,0.252-2.934c0.168-0.875,0.469-1.686,0.9-2.43
	c0.432-0.744,1.008-1.44,1.729-2.088c0.72-0.648,1.644-1.284,2.771-1.908c0.96-0.528,1.818-0.99,2.574-1.386
	s1.392-0.762,1.908-1.098c0.516-0.335,0.905-0.678,1.17-1.026c0.264-0.348,0.396-0.75,0.396-1.206c0-0.72-0.288-1.337-0.864-1.854
	c-0.575-0.516-1.403-0.774-2.483-0.774c-0.576,0-1.104,0.078-1.584,0.234c-0.48,0.157-0.931,0.366-1.351,0.63
	s-0.804,0.558-1.151,0.882c-0.349,0.324-0.666,0.666-0.954,1.026l-3.096-3.564c0.312-0.336,0.756-0.702,1.332-1.098
	c0.575-0.396,1.253-0.768,2.033-1.116c0.78-0.348,1.644-0.636,2.593-0.864c0.947-0.228,1.962-0.342,3.042-0.342
	c1.224,0,2.315,0.15,3.275,0.45c0.96,0.3,1.77,0.72,2.431,1.26c0.659,0.54,1.163,1.188,1.512,1.944
	c0.348,0.756,0.521,1.579,0.521,2.466c0,0.84-0.156,1.584-0.468,2.232c-0.313,0.648-0.708,1.224-1.188,1.728
	c-0.48,0.504-1.003,0.942-1.566,1.314c-0.564,0.373-1.11,0.702-1.638,0.99c-0.433,0.24-0.895,0.504-1.387,0.792
	c-0.492,0.288-0.978,0.606-1.458,0.954c-0.479,0.348-0.918,0.727-1.313,1.134c-0.396,0.408-0.702,0.84-0.918,1.296h10.332v4.356
	H160.854z"/>
<path fill="#9C598F" d="M192.822,40.565h-11.628v-4.392h19.224l-12.708,25.56h-5.436L192.822,40.565z"/>
<path fill="#9C598F" d="M200.49,57.161v-5.184h3.96v5.184H200.49z"/>
<path fill="#9C598F" d="M220.217,48.665c1.512,0.265,2.73,0.979,3.654,2.142c0.924,1.165,1.386,2.586,1.386,4.266
	c0,1.128-0.222,2.147-0.666,3.06c-0.444,0.912-1.074,1.686-1.89,2.322c-0.816,0.636-1.8,1.128-2.952,1.476
	c-1.152,0.348-2.437,0.522-3.852,0.522c-1.849,0-3.475-0.294-4.879-0.882c-1.403-0.588-2.562-1.446-3.474-2.574l2.736-3.42
	c0.624,0.792,1.361,1.404,2.214,1.836c0.852,0.432,1.926,0.648,3.222,0.648c1.464,0,2.586-0.288,3.366-0.864
	c0.779-0.576,1.17-1.464,1.17-2.664c0-1.248-0.444-2.208-1.332-2.88s-2.231-1.008-4.032-1.008h-1.008v-3.6h1.116
	c1.464,0,2.604-0.33,3.42-0.99c0.815-0.66,1.224-1.506,1.224-2.538c0-0.984-0.33-1.716-0.989-2.196c-0.661-0.48-1.53-0.72-2.61-0.72
	c-1.104,0-2.094,0.252-2.97,0.756c-0.877,0.504-1.591,1.212-2.143,2.124l-3.023-3.384c0.359-0.552,0.84-1.05,1.439-1.494
	c0.6-0.444,1.278-0.828,2.034-1.152c0.756-0.324,1.578-0.576,2.466-0.756c0.888-0.18,1.8-0.27,2.736-0.27
	c1.224,0,2.34,0.156,3.348,0.468c1.008,0.312,1.872,0.744,2.592,1.296c0.721,0.553,1.278,1.219,1.675,1.998
	c0.396,0.78,0.594,1.65,0.594,2.61c0,0.72-0.108,1.404-0.324,2.052s-0.528,1.236-0.936,1.764c-0.409,0.528-0.895,0.972-1.458,1.332
	C221.507,48.305,220.889,48.545,220.217,48.665z"/>
<path fill="#9C598F" d="M233.933,42.149c-0.815,0-1.584-0.144-2.304-0.432s-1.35-0.678-1.89-1.17
	c-0.54-0.492-0.967-1.068-1.278-1.728c-0.313-0.66-0.468-1.374-0.468-2.142c0-0.744,0.155-1.452,0.468-2.124
	c0.312-0.672,0.738-1.248,1.278-1.728c0.54-0.48,1.17-0.864,1.89-1.152c0.72-0.288,1.488-0.432,2.304-0.432
	c0.84,0,1.62,0.144,2.341,0.432c0.72,0.288,1.35,0.672,1.89,1.152c0.54,0.48,0.96,1.056,1.26,1.728s0.45,1.38,0.45,2.124
	c0,0.768-0.15,1.482-0.45,2.142s-0.72,1.236-1.26,1.728c-0.54,0.492-1.17,0.882-1.89,1.17
	C235.553,42.005,234.773,42.149,233.933,42.149z M230.045,55.469l10.152-11.844l9.36-12.312l2.195,1.944l-9.935,11.592
	l-9.576,12.564L230.045,55.469z M233.933,39.737c0.36,0,0.69-0.084,0.99-0.252s0.57-0.39,0.811-0.666
	c0.239-0.276,0.426-0.6,0.558-0.972c0.132-0.372,0.198-0.762,0.198-1.17c0-0.84-0.252-1.554-0.756-2.142
	c-0.505-0.588-1.104-0.882-1.801-0.882c-0.359,0-0.689,0.084-0.989,0.252c-0.301,0.168-0.57,0.39-0.811,0.666
	s-0.426,0.594-0.558,0.954c-0.133,0.36-0.198,0.745-0.198,1.152c0,0.432,0.065,0.834,0.198,1.206
	c0.132,0.372,0.317,0.696,0.558,0.972c0.24,0.276,0.516,0.492,0.828,0.648C233.273,39.66,233.597,39.737,233.933,39.737z
	 M247.83,57.521c-0.816,0-1.584-0.144-2.304-0.432c-0.721-0.288-1.345-0.672-1.872-1.152c-0.528-0.479-0.948-1.049-1.261-1.71
	c-0.312-0.66-0.468-1.374-0.468-2.142c0-0.768,0.156-1.481,0.468-2.142c0.313-0.66,0.732-1.236,1.261-1.728
	c0.527-0.492,1.151-0.882,1.872-1.17c0.72-0.288,1.487-0.432,2.304-0.432c0.839,0,1.621,0.144,2.339,0.432
	c0.721,0.288,1.35,0.679,1.891,1.17c0.539,0.492,0.959,1.068,1.26,1.728s0.449,1.374,0.449,2.142c0,0.769-0.148,1.482-0.449,2.142
	c-0.301,0.661-0.721,1.23-1.26,1.71c-0.541,0.48-1.17,0.864-1.891,1.152C249.45,57.377,248.669,57.521,247.83,57.521z
	 M247.83,55.109c0.72,0,1.332-0.3,1.835-0.9c0.504-0.6,0.756-1.308,0.756-2.124c0-0.84-0.258-1.56-0.773-2.16
	c-0.516-0.6-1.123-0.9-1.818-0.9c-0.36,0-0.69,0.084-0.99,0.252s-0.57,0.39-0.81,0.666c-0.24,0.276-0.427,0.6-0.559,0.972
	c-0.132,0.373-0.197,0.762-0.197,1.17c0,0.84,0.252,1.554,0.756,2.142C246.534,54.815,247.133,55.109,247.83,55.109z"/>
<path d="M77.168,375.663l5.6-14.2h2.24l5.58,14.2h-2.92l-1.3-3.54h-4.98l-1.3,3.54H77.168z M83.888,364.443l-2.04,5.739h4.02
	L83.888,364.443z"/>
<path d="M92.167,375.663v-7.2h-1.36v-2.06h1.36v-1.3c0-1.307,0.317-2.341,0.95-3.101c0.633-0.76,1.483-1.14,2.55-1.14
	c0.853,0,1.713,0.207,2.58,0.62l-0.54,2.02c-0.2-0.106-0.437-0.196-0.71-0.27c-0.273-0.073-0.523-0.11-0.75-0.11
	c-0.934,0-1.4,0.627-1.4,1.88v1.4h2.56v2.06h-2.56v7.2H92.167z"/>
<path d="M105.408,375.123c-0.36,0.16-0.803,0.32-1.33,0.48c-0.527,0.159-1.077,0.239-1.65,0.239c-0.374,0-0.724-0.047-1.05-0.14
	c-0.327-0.093-0.614-0.243-0.86-0.45c-0.247-0.206-0.443-0.473-0.59-0.8c-0.147-0.326-0.22-0.724-0.22-1.19v-6.02h-1.36v-2.061h1.36
	v-3.399h2.68v3.399h2.22v2.061h-2.22v5.12c0,0.373,0.1,0.637,0.3,0.79c0.2,0.153,0.44,0.229,0.72,0.229s0.553-0.046,0.82-0.14
	c0.267-0.093,0.48-0.173,0.64-0.24L105.408,375.123z"/>
<path d="M111.627,375.863c-0.84,0-1.6-0.144-2.28-0.431c-0.68-0.286-1.26-0.676-1.74-1.17c-0.48-0.493-0.85-1.066-1.11-1.72
	c-0.26-0.653-0.39-1.34-0.39-2.06c0-0.747,0.126-1.45,0.38-2.11s0.62-1.24,1.1-1.74s1.063-0.896,1.75-1.189
	c0.687-0.293,1.457-0.44,2.31-0.44c0.853,0,1.617,0.147,2.29,0.44c0.673,0.293,1.247,0.687,1.72,1.18s0.833,1.067,1.08,1.72
	c0.247,0.653,0.37,1.334,0.37,2.04c0,0.174-0.003,0.34-0.01,0.5s-0.023,0.294-0.05,0.4h-8.1c0.04,0.413,0.14,0.78,0.3,1.1
	c0.16,0.32,0.366,0.594,0.62,0.82s0.54,0.4,0.86,0.52c0.32,0.12,0.653,0.181,1,0.181c0.533,0,1.037-0.13,1.51-0.391
	c0.473-0.26,0.796-0.603,0.97-1.029l2.3,0.64c-0.387,0.8-1.003,1.457-1.85,1.97C113.811,375.606,112.8,375.863,111.627,375.863z
	 M114.347,369.542c-0.067-0.786-0.356-1.416-0.87-1.89c-0.514-0.474-1.137-0.71-1.87-0.71c-0.36,0-0.697,0.063-1.01,0.189
	c-0.313,0.127-0.59,0.304-0.83,0.53c-0.24,0.227-0.437,0.5-0.59,0.82c-0.153,0.319-0.243,0.673-0.27,1.06H114.347z"/>
<path d="M124.987,367.502c-0.813,0.014-1.54,0.17-2.18,0.47c-0.64,0.301-1.1,0.75-1.38,1.351v6.34h-2.68v-10.48h2.46v2.24
	c0.36-0.72,0.83-1.3,1.41-1.74c0.58-0.439,1.19-0.659,1.83-0.659c0.146,0,0.257,0.003,0.33,0.01s0.143,0.017,0.21,0.03V367.502z"/>
<path d="M139.047,373.243v2.42h-8.12v-2.42h2.84v-6.061c-0.12,0.16-0.307,0.324-0.56,0.49c-0.253,0.167-0.534,0.323-0.84,0.471
	c-0.307,0.146-0.627,0.267-0.96,0.359c-0.333,0.094-0.627,0.141-0.88,0.141v-2.5c0.24,0,0.533-0.077,0.88-0.23
	c0.346-0.153,0.687-0.337,1.02-0.55c0.333-0.213,0.627-0.423,0.88-0.63c0.253-0.207,0.406-0.37,0.46-0.49h2.74v9H139.047z"/>
<path d="M149.967,361.502h2.54l1.6,4.7l1.6-4.7h2.56l-2.42,6.46l1.8,4.54l4.02-11.04h3l-5.78,14.2h-2.32l-2.46-5.96l-2.46,5.96
	h-2.32l-5.76-14.2h2.98l4.04,11.04l1.76-4.54L149.967,361.502z"/>
<path d="M170.727,375.863c-0.84,0-1.6-0.144-2.28-0.431c-0.68-0.286-1.26-0.676-1.74-1.17c-0.48-0.493-0.85-1.066-1.11-1.72
	c-0.26-0.653-0.39-1.34-0.39-2.06c0-0.747,0.126-1.45,0.38-2.11s0.62-1.24,1.1-1.74s1.063-0.896,1.75-1.189
	c0.687-0.293,1.457-0.44,2.31-0.44c0.853,0,1.617,0.147,2.29,0.44c0.673,0.293,1.247,0.687,1.72,1.18s0.833,1.067,1.08,1.72
	c0.247,0.653,0.37,1.334,0.37,2.04c0,0.174-0.003,0.34-0.01,0.5s-0.023,0.294-0.05,0.4h-8.1c0.04,0.413,0.14,0.78,0.3,1.1
	c0.16,0.32,0.366,0.594,0.62,0.82s0.54,0.4,0.86,0.52c0.32,0.12,0.653,0.181,1,0.181c0.533,0,1.037-0.13,1.51-0.391
	c0.473-0.26,0.796-0.603,0.97-1.029l2.3,0.64c-0.387,0.8-1.003,1.457-1.85,1.97C172.91,375.606,171.9,375.863,170.727,375.863z
	 M173.447,369.542c-0.067-0.786-0.356-1.416-0.87-1.89c-0.514-0.474-1.137-0.71-1.87-0.71c-0.36,0-0.697,0.063-1.01,0.189
	c-0.313,0.127-0.59,0.304-0.83,0.53c-0.24,0.227-0.437,0.5-0.59,0.82c-0.153,0.319-0.243,0.673-0.27,1.06H173.447z"/>
<path d="M182.727,375.863c-0.84,0-1.6-0.144-2.28-0.431c-0.68-0.286-1.26-0.676-1.74-1.17c-0.48-0.493-0.85-1.066-1.11-1.72
	c-0.26-0.653-0.39-1.34-0.39-2.06c0-0.747,0.126-1.45,0.38-2.11s0.62-1.24,1.1-1.74s1.063-0.896,1.75-1.189
	c0.687-0.293,1.457-0.44,2.31-0.44c0.853,0,1.617,0.147,2.29,0.44c0.673,0.293,1.247,0.687,1.72,1.18s0.833,1.067,1.08,1.72
	c0.247,0.653,0.37,1.334,0.37,2.04c0,0.174-0.003,0.34-0.01,0.5s-0.023,0.294-0.05,0.4h-8.1c0.04,0.413,0.14,0.78,0.3,1.1
	c0.16,0.32,0.366,0.594,0.62,0.82s0.54,0.4,0.86,0.52c0.32,0.12,0.653,0.181,1,0.181c0.533,0,1.037-0.13,1.51-0.391
	c0.473-0.26,0.796-0.603,0.97-1.029l2.3,0.64c-0.387,0.8-1.003,1.457-1.85,1.97C184.91,375.606,183.9,375.863,182.727,375.863z
	 M185.447,369.542c-0.067-0.786-0.356-1.416-0.87-1.89c-0.514-0.474-1.137-0.71-1.87-0.71c-0.36,0-0.697,0.063-1.01,0.189
	c-0.313,0.127-0.59,0.304-0.83,0.53c-0.24,0.227-0.437,0.5-0.59,0.82c-0.153,0.319-0.243,0.673-0.27,1.06H185.447z"/>
<path d="M197.007,375.663l-3.04-4.54l-1.44,1.42v3.12h-2.68v-14.6h2.68v8.859l4.2-4.72h2.86l-3.92,4.44l4.2,6.02H197.007z"/>
<path d="M224.142,375.663l5.6-14.2h2.24l5.58,14.2h-2.92l-1.3-3.54h-4.98l-1.3,3.54H224.142z M230.861,364.443l-2.04,5.739h4.02
	L230.861,364.443z"/>
<path d="M239.142,375.663v-7.2h-1.36v-2.06h1.36v-1.3c0-1.307,0.317-2.341,0.95-3.101c0.633-0.76,1.483-1.14,2.55-1.14
	c0.853,0,1.713,0.207,2.58,0.62l-0.54,2.02c-0.2-0.106-0.437-0.196-0.71-0.27c-0.273-0.073-0.523-0.11-0.75-0.11
	c-0.934,0-1.4,0.627-1.4,1.88v1.4h2.56v2.06h-2.56v7.2H239.142z"/>
<path d="M252.382,375.123c-0.359,0.16-0.803,0.32-1.33,0.48c-0.527,0.159-1.076,0.239-1.65,0.239c-0.373,0-0.723-0.047-1.049-0.14
	c-0.327-0.093-0.614-0.243-0.86-0.45c-0.247-0.206-0.443-0.473-0.59-0.8c-0.147-0.326-0.22-0.724-0.22-1.19v-6.02h-1.36v-2.061h1.36
	v-3.399h2.681v3.399h2.22v2.061h-2.22v5.12c0,0.373,0.1,0.637,0.299,0.79c0.201,0.153,0.441,0.229,0.721,0.229
	s0.553-0.046,0.82-0.14c0.266-0.093,0.479-0.173,0.64-0.24L252.382,375.123z"/>
<path d="M258.602,375.863c-0.84,0-1.601-0.144-2.28-0.431c-0.68-0.286-1.26-0.676-1.74-1.17c-0.479-0.493-0.85-1.066-1.109-1.72
	s-0.391-1.34-0.391-2.06c0-0.747,0.127-1.45,0.381-2.11c0.253-0.66,0.619-1.24,1.1-1.74s1.063-0.896,1.75-1.189
	c0.687-0.293,1.457-0.44,2.311-0.44c0.853,0,1.616,0.147,2.289,0.44c0.674,0.293,1.247,0.687,1.721,1.18
	c0.473,0.493,0.833,1.067,1.08,1.72c0.246,0.653,0.369,1.334,0.369,2.04c0,0.174-0.003,0.34-0.01,0.5s-0.023,0.294-0.05,0.4h-8.101
	c0.041,0.413,0.141,0.78,0.301,1.1c0.16,0.32,0.366,0.594,0.619,0.82c0.254,0.227,0.541,0.4,0.861,0.52
	c0.319,0.12,0.652,0.181,1,0.181c0.532,0,1.036-0.13,1.51-0.391c0.473-0.26,0.796-0.603,0.97-1.029l2.3,0.64
	c-0.387,0.8-1.004,1.457-1.85,1.97C260.784,375.606,259.774,375.863,258.602,375.863z M261.321,369.542
	c-0.066-0.786-0.356-1.416-0.869-1.89c-0.514-0.474-1.138-0.71-1.871-0.71c-0.359,0-0.696,0.063-1.01,0.189
	c-0.313,0.127-0.59,0.304-0.83,0.53s-0.437,0.5-0.59,0.82c-0.153,0.319-0.243,0.673-0.27,1.06H261.321z"/>
<path d="M271.962,367.502c-0.814,0.014-1.541,0.17-2.181,0.47c-0.64,0.301-1.1,0.75-1.38,1.351v6.34h-2.68v-10.48h2.46v2.24
	c0.36-0.72,0.83-1.3,1.409-1.74c0.58-0.439,1.19-0.659,1.83-0.659c0.146,0,0.258,0.003,0.33,0.01
	c0.074,0.007,0.144,0.017,0.211,0.03V367.502z"/>
<path d="M287.841,371.462c0,0.667-0.137,1.267-0.41,1.8c-0.273,0.534-0.646,0.994-1.119,1.381c-0.474,0.387-1.023,0.683-1.65,0.89
	c-0.627,0.206-1.293,0.31-2,0.31s-1.37-0.109-1.99-0.33c-0.619-0.22-1.163-0.529-1.63-0.93s-0.837-0.873-1.11-1.42
	s-0.41-1.146-0.41-1.8c0-0.4,0.067-0.771,0.201-1.11c0.133-0.34,0.307-0.649,0.52-0.93s0.453-0.526,0.72-0.74
	c0.267-0.213,0.533-0.387,0.8-0.52c-0.506-0.24-0.934-0.601-1.279-1.08c-0.348-0.48-0.521-1.007-0.521-1.58
	c0-0.641,0.144-1.203,0.431-1.69c0.286-0.486,0.66-0.896,1.119-1.229c0.461-0.333,0.967-0.587,1.521-0.761
	c0.554-0.173,1.103-0.26,1.649-0.26s1.101,0.084,1.66,0.25c0.561,0.167,1.07,0.417,1.53,0.75c0.46,0.334,0.833,0.743,1.12,1.23
	c0.287,0.486,0.43,1.05,0.43,1.689c0,0.573-0.177,1.107-0.529,1.601c-0.354,0.493-0.783,0.854-1.291,1.08
	c0.281,0.146,0.557,0.33,0.83,0.55s0.514,0.474,0.721,0.76c0.207,0.287,0.373,0.604,0.5,0.95S287.841,371.049,287.841,371.462z
	 M285.121,371.302c0-0.333-0.069-0.633-0.21-0.899s-0.323-0.49-0.55-0.67c-0.228-0.181-0.487-0.316-0.78-0.41
	s-0.594-0.141-0.9-0.141c-0.319,0-0.627,0.051-0.92,0.15s-0.553,0.243-0.779,0.43c-0.227,0.188-0.407,0.41-0.541,0.67
	c-0.133,0.261-0.199,0.551-0.199,0.87c0,0.32,0.07,0.61,0.21,0.87s0.323,0.483,0.55,0.67c0.227,0.188,0.49,0.33,0.79,0.431
	c0.3,0.1,0.603,0.149,0.91,0.149c0.319,0,0.623-0.053,0.91-0.16c0.286-0.106,0.543-0.253,0.771-0.439
	c0.227-0.187,0.406-0.41,0.539-0.67S285.121,371.61,285.121,371.302z M280.681,365.483c0,0.279,0.061,0.523,0.181,0.729
	c0.12,0.207,0.276,0.38,0.47,0.521c0.193,0.14,0.406,0.246,0.641,0.319c0.232,0.074,0.469,0.11,0.709,0.11s0.48-0.036,0.721-0.11
	c0.24-0.073,0.457-0.183,0.65-0.33c0.192-0.146,0.35-0.322,0.469-0.529c0.121-0.207,0.181-0.45,0.181-0.73
	c0-0.493-0.2-0.887-0.601-1.18c-0.399-0.293-0.873-0.44-1.42-0.44s-1.017,0.15-1.41,0.45
	C280.878,364.592,280.681,364.99,280.681,365.483z"/>
<path d="M299.201,361.502h2.54l1.6,4.7l1.601-4.7h2.56l-2.42,6.46l1.801,4.54l4.02-11.04h3l-5.78,14.2h-2.319l-2.461-5.96
	l-2.459,5.96h-2.32l-5.76-14.2h2.979l4.04,11.04l1.76-4.54L299.201,361.502z"/>
<path d="M319.962,375.863c-0.84,0-1.601-0.144-2.281-0.431c-0.68-0.286-1.26-0.676-1.739-1.17c-0.479-0.493-0.851-1.066-1.11-1.72
	s-0.39-1.34-0.39-2.06c0-0.747,0.126-1.45,0.38-2.11s0.62-1.24,1.1-1.74c0.48-0.5,1.063-0.896,1.75-1.189
	c0.688-0.293,1.457-0.44,2.311-0.44s1.617,0.147,2.29,0.44s1.247,0.687,1.72,1.18s0.834,1.067,1.08,1.72
	c0.246,0.653,0.37,1.334,0.37,2.04c0,0.174-0.003,0.34-0.011,0.5c-0.006,0.16-0.023,0.294-0.049,0.4h-8.101
	c0.04,0.413,0.14,0.78,0.3,1.1c0.16,0.32,0.367,0.594,0.62,0.82s0.54,0.4,0.86,0.52c0.32,0.12,0.652,0.181,1,0.181
	c0.533,0,1.037-0.13,1.51-0.391c0.473-0.26,0.797-0.603,0.971-1.029l2.299,0.64c-0.387,0.8-1.003,1.457-1.85,1.97
	C322.145,375.606,321.134,375.863,319.962,375.863z M322.681,369.542c-0.066-0.786-0.355-1.416-0.869-1.89s-1.137-0.71-1.87-0.71
	c-0.36,0-0.696,0.063-1.011,0.189c-0.313,0.127-0.59,0.304-0.829,0.53c-0.24,0.227-0.437,0.5-0.591,0.82
	c-0.152,0.319-0.242,0.673-0.27,1.06H322.681z"/>
<path d="M331.962,375.863c-0.84,0-1.601-0.144-2.281-0.431c-0.68-0.286-1.26-0.676-1.739-1.17c-0.479-0.493-0.851-1.066-1.11-1.72
	s-0.39-1.34-0.39-2.06c0-0.747,0.126-1.45,0.38-2.11s0.62-1.24,1.1-1.74c0.48-0.5,1.063-0.896,1.75-1.189
	c0.688-0.293,1.457-0.44,2.311-0.44s1.617,0.147,2.29,0.44s1.247,0.687,1.72,1.18s0.834,1.067,1.08,1.72
	c0.246,0.653,0.37,1.334,0.37,2.04c0,0.174-0.003,0.34-0.011,0.5c-0.006,0.16-0.023,0.294-0.049,0.4h-8.101
	c0.04,0.413,0.14,0.78,0.3,1.1c0.16,0.32,0.367,0.594,0.62,0.82s0.54,0.4,0.86,0.52c0.32,0.12,0.652,0.181,1,0.181
	c0.533,0,1.037-0.13,1.51-0.391c0.473-0.26,0.797-0.603,0.971-1.029l2.299,0.64c-0.387,0.8-1.003,1.457-1.85,1.97
	C334.145,375.606,333.134,375.863,331.962,375.863z M334.681,369.542c-0.066-0.786-0.355-1.416-0.869-1.89s-1.137-0.71-1.87-0.71
	c-0.36,0-0.696,0.063-1.011,0.189c-0.313,0.127-0.59,0.304-0.829,0.53c-0.24,0.227-0.437,0.5-0.591,0.82
	c-0.152,0.319-0.242,0.673-0.27,1.06H334.681z"/>
<path d="M346.241,375.663l-3.04-4.54l-1.44,1.42v3.12h-2.68v-14.6h2.68v8.859l4.201-4.72h2.859l-3.92,4.44l4.2,6.02H346.241z"/>
<path d="M354.261,375.863c-0.427,0-0.869-0.033-1.33-0.101c-0.46-0.066-0.91-0.159-1.35-0.279s-0.86-0.267-1.26-0.44
	c-0.4-0.173-0.754-0.366-1.061-0.58l1.08-1.819c1.333,0.866,2.62,1.3,3.859,1.3c0.561,0,1-0.101,1.32-0.3
	c0.32-0.2,0.48-0.487,0.48-0.86s-0.189-0.65-0.57-0.83c-0.38-0.18-1.017-0.377-1.91-0.59c-0.68-0.16-1.26-0.327-1.74-0.5
	c-0.479-0.173-0.866-0.373-1.159-0.601c-0.294-0.227-0.507-0.486-0.64-0.779c-0.134-0.293-0.201-0.641-0.201-1.04
	c0-0.533,0.107-1.014,0.32-1.44s0.51-0.79,0.891-1.09c0.38-0.3,0.826-0.53,1.34-0.69c0.514-0.159,1.07-0.239,1.67-0.239
	c0.746,0,1.49,0.116,2.23,0.35c0.739,0.233,1.43,0.55,2.069,0.95l-1.101,1.66c-0.586-0.373-1.139-0.644-1.659-0.811
	c-0.521-0.166-1.04-0.25-1.56-0.25c-0.48,0-0.884,0.094-1.211,0.28c-0.326,0.187-0.49,0.487-0.49,0.9
	c0,0.359,0.157,0.619,0.471,0.779c0.313,0.16,0.87,0.34,1.67,0.54c0.746,0.188,1.383,0.374,1.91,0.561
	c0.526,0.187,0.96,0.399,1.3,0.64s0.587,0.517,0.74,0.83s0.229,0.69,0.229,1.13c0,0.507-0.104,0.967-0.31,1.38
	c-0.207,0.414-0.497,0.764-0.87,1.05c-0.373,0.287-0.83,0.507-1.37,0.66S354.914,375.863,354.261,375.863z"/>
<path d="M12.408,351.497c0,1.057-0.156,2.028-0.468,2.916c-0.312,0.889-0.744,1.656-1.296,2.305
	c-0.552,0.647-1.208,1.151-1.968,1.512c-0.76,0.359-1.58,0.54-2.46,0.54c-0.896,0-1.724-0.181-2.484-0.54
	c-0.76-0.36-1.416-0.864-1.968-1.512c-0.552-0.648-0.984-1.416-1.296-2.305C0.156,353.525,0,352.553,0,351.497
	c0-1.056,0.156-2.027,0.468-2.916c0.312-0.888,0.744-1.655,1.296-2.304c0.552-0.648,1.208-1.156,1.968-1.524
	c0.76-0.367,1.587-0.552,2.484-0.552c0.88,0,1.7,0.185,2.46,0.552c0.76,0.368,1.416,0.876,1.968,1.524
	c0.552,0.648,0.984,1.416,1.296,2.304C12.252,349.469,12.408,350.441,12.408,351.497z M9.168,351.497
	c0-0.64-0.072-1.228-0.216-1.764s-0.348-0.996-0.612-1.38c-0.264-0.384-0.576-0.68-0.936-0.889c-0.36-0.207-0.756-0.312-1.188-0.312
	c-0.448,0-0.856,0.104-1.224,0.312c-0.368,0.209-0.684,0.505-0.948,0.889c-0.264,0.384-0.468,0.844-0.612,1.38
	s-0.216,1.124-0.216,1.764c0,0.641,0.072,1.225,0.216,1.752c0.144,0.528,0.348,0.984,0.612,1.368
	c0.264,0.384,0.58,0.681,0.948,0.888c0.368,0.209,0.776,0.313,1.224,0.313c0.432,0,0.828-0.104,1.188-0.313
	c0.36-0.207,0.672-0.504,0.936-0.888c0.264-0.384,0.468-0.84,0.612-1.368C9.096,352.721,9.168,352.137,9.168,351.497z"/>
<path d="M14.952,358.529v-3.456h2.64v3.456H14.952z"/>
<path d="M28.104,352.865c1.008,0.177,1.82,0.652,2.436,1.428c0.616,0.776,0.924,1.725,0.924,2.845c0,0.752-0.148,1.432-0.444,2.04
	c-0.296,0.607-0.716,1.123-1.26,1.548c-0.544,0.424-1.2,0.752-1.968,0.983c-0.768,0.232-1.624,0.349-2.568,0.349
	c-1.232,0-2.316-0.196-3.252-0.588c-0.936-0.393-1.708-0.965-2.316-1.717l1.824-2.279c0.416,0.527,0.908,0.936,1.476,1.224
	c0.568,0.288,1.284,0.432,2.148,0.432c0.976,0,1.724-0.191,2.244-0.575c0.52-0.385,0.78-0.977,0.78-1.776
	c0-0.832-0.296-1.472-0.888-1.92s-1.488-0.672-2.688-0.672H23.88v-2.4h0.744c0.976,0,1.736-0.22,2.28-0.66
	c0.544-0.439,0.816-1.004,0.816-1.691c0-0.656-0.22-1.145-0.66-1.464c-0.44-0.32-1.02-0.48-1.74-0.48
	c-0.736,0-1.396,0.168-1.98,0.504s-1.06,0.809-1.428,1.416l-2.016-2.256c0.24-0.368,0.56-0.7,0.96-0.996s0.852-0.552,1.356-0.768
	c0.504-0.217,1.052-0.385,1.644-0.504c0.592-0.12,1.2-0.181,1.824-0.181c0.816,0,1.56,0.104,2.232,0.313
	c0.672,0.208,1.248,0.496,1.728,0.863c0.48,0.369,0.852,0.813,1.116,1.332c0.264,0.521,0.396,1.101,0.396,1.74
	c0,0.48-0.072,0.937-0.216,1.368s-0.352,0.824-0.624,1.176c-0.272,0.353-0.596,0.648-0.972,0.889
	C28.964,352.625,28.552,352.785,28.104,352.865z"/>
<path d="M12.408,179.762c0,1.057-0.156,2.029-0.468,2.916c-0.312,0.889-0.744,1.656-1.296,2.305
	c-0.552,0.648-1.208,1.152-1.968,1.512c-0.76,0.359-1.58,0.541-2.46,0.541c-0.896,0-1.724-0.182-2.484-0.541
	c-0.76-0.359-1.416-0.863-1.968-1.512c-0.552-0.648-0.984-1.416-1.296-2.305C0.156,181.792,0,180.819,0,179.762
	c0-1.055,0.156-2.027,0.468-2.916c0.312-0.887,0.744-1.654,1.296-2.303c0.552-0.648,1.208-1.156,1.968-1.525
	c0.76-0.367,1.587-0.551,2.484-0.551c0.88,0,1.7,0.184,2.46,0.551c0.76,0.369,1.416,0.877,1.968,1.525
	c0.552,0.648,0.984,1.416,1.296,2.303C12.252,177.735,12.408,178.708,12.408,179.762z M9.168,179.762
	c0-0.639-0.072-1.227-0.216-1.764c-0.144-0.535-0.348-0.996-0.612-1.379c-0.264-0.385-0.576-0.68-0.936-0.889
	c-0.36-0.207-0.756-0.313-1.188-0.313c-0.448,0-0.856,0.105-1.224,0.313c-0.368,0.209-0.684,0.504-0.948,0.889
	c-0.264,0.383-0.468,0.844-0.612,1.379c-0.144,0.537-0.216,1.125-0.216,1.764c0,0.641,0.072,1.225,0.216,1.752
	c0.144,0.529,0.348,0.984,0.612,1.369c0.264,0.383,0.58,0.68,0.948,0.887c0.368,0.209,0.776,0.313,1.224,0.313
	c0.432,0,0.828-0.104,1.188-0.313c0.36-0.207,0.672-0.504,0.936-0.887c0.264-0.385,0.468-0.84,0.612-1.369
	C9.096,180.987,9.168,180.403,9.168,179.762z"/>
<path d="M14.952,186.795v-3.457h2.64v3.457H14.952z"/>
<path d="M26.472,189.842v-3.576h-7.008v-2.855l8.016-10.32h2.208v10.297H31.8v2.879h-2.112v3.576H26.472z M22.68,183.387h4.152
	v-5.424L22.68,183.387z"/>
<path d="M12.408,7.296c0,1.057-0.156,2.028-0.468,2.916c-0.312,0.889-0.744,1.656-1.296,2.305c-0.552,0.647-1.208,1.151-1.968,1.512
	c-0.76,0.359-1.58,0.54-2.46,0.54c-0.896,0-1.724-0.181-2.484-0.54c-0.76-0.36-1.416-0.864-1.968-1.512
	c-0.552-0.648-0.984-1.416-1.296-2.305C0.156,9.324,0,8.353,0,7.296C0,6.24,0.156,5.269,0.468,4.38
	C0.78,3.492,1.212,2.725,1.764,2.076C2.316,1.428,2.972,0.92,3.732,0.552C4.492,0.185,5.32,0,6.216,0c0.88,0,1.7,0.185,2.46,0.552
	c0.76,0.368,1.416,0.876,1.968,1.524c0.552,0.648,0.984,1.416,1.296,2.304C12.252,5.269,12.408,6.24,12.408,7.296z M9.168,7.296
	c0-0.64-0.072-1.228-0.216-1.764S8.604,4.536,8.34,4.152c-0.264-0.384-0.576-0.68-0.936-0.889c-0.36-0.207-0.756-0.312-1.188-0.312
	c-0.448,0-0.856,0.104-1.224,0.312C4.624,3.473,4.308,3.769,4.044,4.152C3.78,4.536,3.576,4.996,3.432,5.532
	S3.216,6.656,3.216,7.296c0,0.641,0.072,1.225,0.216,1.752c0.144,0.528,0.348,0.984,0.612,1.368c0.264,0.384,0.58,0.681,0.948,0.888
	c0.368,0.209,0.776,0.313,1.224,0.313c0.432,0,0.828-0.104,1.188-0.313c0.36-0.207,0.672-0.504,0.936-0.888
	c0.264-0.384,0.468-0.84,0.612-1.368C9.096,8.521,9.168,7.937,9.168,7.296z"/>
<path d="M14.952,14.328v-3.456h2.64v3.456H14.952z"/>
<path d="M25.896,6.672c0.8,0,1.544,0.132,2.232,0.396c0.688,0.264,1.284,0.636,1.788,1.116c0.504,0.479,0.896,1.056,1.176,1.728
	s0.42,1.416,0.42,2.232c0,0.863-0.16,1.647-0.48,2.352c-0.32,0.704-0.76,1.308-1.32,1.813c-0.56,0.504-1.224,0.896-1.992,1.176
	c-0.768,0.279-1.6,0.42-2.496,0.42c-1.248,0-2.364-0.265-3.348-0.792c-0.984-0.528-1.732-1.248-2.244-2.16l1.848-1.92
	c0.464,0.624,1.028,1.12,1.692,1.488c0.664,0.367,1.356,0.552,2.076,0.552c0.864,0,1.572-0.261,2.124-0.78
	c0.552-0.52,0.828-1.212,0.828-2.076c0-0.831-0.26-1.504-0.78-2.016s-1.18-0.769-1.98-0.769c-0.528,0-1.02,0.12-1.476,0.36
	s-0.82,0.568-1.092,0.984h-2.808c0-0.048,0.032-0.229,0.096-0.54c0.063-0.313,0.144-0.712,0.24-1.2
	c0.096-0.488,0.2-1.032,0.312-1.632c0.112-0.601,0.232-1.212,0.36-1.836c0.288-1.472,0.608-3.12,0.96-4.944h8.4v2.928H24.36
	l-0.672,3.816c0.192-0.208,0.472-0.376,0.84-0.504S25.352,6.672,25.896,6.672z"/>
<line fill="none" stroke="#000000" stroke-miterlimit="10" x1="241.092" y1="62.662" x2="307.758" y2="76.662"/>
</svg>
