<?xml version="1.0" encoding="utf-8"?>
<!-- Generator: Adobe Illustrator 15.0.2, SVG Export Plug-In  -->
<!DOCTYPE svg PUBLIC "-//W3C//DTD SVG 1.1//EN" "http://www.w3.org/Graphics/SVG/1.1/DTD/svg11.dtd" [
	<!ENTITY ns_flows "http://ns.adobe.com/Flows/1.0/">
]>
<svg version="1.1"
	 xmlns="http://www.w3.org/2000/svg" xmlns:xlink="http://www.w3.org/1999/xlink" xmlns:a="http://ns.adobe.com/AdobeSVGViewerExtensions/3.0/"
	 x="0px" y="0px" width="388px" height="381px" viewBox="-5.786 -0.705 388 381" enable-background="new -5.786 -0.705 388 381"
	 xml:space="preserve">
<defs>
</defs>
<rect x="35.213" y="9.295" fill="#FFFFFF" width="344.332" height="343.5"/>
<line fill="none" stroke="#000000" stroke-width="2" stroke-miterlimit="10" x1="30.713" y1="181.295" x2="379.545" y2="181.295"/>
<linearGradient id="SVGID_1_" gradientUnits="userSpaceOnUse" x1="103.7646" y1="254.041" x2="103.7646" y2="351.9502">
	<stop  offset="0" style="stop-color:#70C4C0"/>
	<stop  offset="1" style="stop-color:#4C7977"/>
</linearGradient>
<rect x="76.178" y="254.041" fill="url(#SVGID_1_)" width="55.173" height="97.909"/>
<linearGradient id="SVGID_2_" gradientUnits="userSpaceOnUse" x1="160.2646" y1="255.542" x2="160.2646" y2="351.9502">
	<stop  offset="0" style="stop-color:#C685BA"/>
	<stop  offset="1" style="stop-color:#9C598F"/>
</linearGradient>
<rect x="132.678" y="255.542" fill="url(#SVGID_2_)" width="55.173" height="96.408"/>
<linearGradient id="SVGID_3_" gradientUnits="userSpaceOnUse" x1="256.2651" y1="253.541" x2="256.2651" y2="351.9502">
	<stop  offset="0" style="stop-color:#70C4C0"/>
	<stop  offset="1" style="stop-color:#4C7977"/>
</linearGradient>
<rect x="228.678" y="253.541" fill="url(#SVGID_3_)" width="55.174" height="98.409"/>
<linearGradient id="SVGID_4_" gradientUnits="userSpaceOnUse" x1="312.7651" y1="99.5415" x2="312.7651" y2="351.9502">
	<stop  offset="0" style="stop-color:#C685BA"/>
	<stop  offset="1" style="stop-color:#9C598F"/>
</linearGradient>
<rect x="285.178" y="99.542" fill="url(#SVGID_4_)" width="55.174" height="252.409"/>
<line fill="none" stroke="#000000" stroke-width="2" stroke-miterlimit="10" x1="35.213" y1="9.295" x2="35.213" y2="358.295"/>
<line fill="none" stroke="#000000" stroke-miterlimit="10" x1="207.546" y1="352.629" x2="207.546" y2="358.295"/>
<line fill="none" stroke="#000000" stroke-width="2" stroke-miterlimit="10" x1="30.713" y1="352.795" x2="379.545" y2="352.795"/>
<line fill="none" stroke="#000000" stroke-width="2" stroke-miterlimit="10" x1="30.713" y1="8.795" x2="379.545" y2="8.795"/>
<path d="M70.986,376.863l5.6-14.2h2.24l5.58,14.2h-2.92l-1.3-3.54h-4.98l-1.3,3.54H70.986z M77.706,365.644l-2.04,5.739h4.02
	L77.706,365.644z"/>
<path d="M85.985,376.863v-7.2h-1.36v-2.06h1.36v-1.3c0-1.307,0.317-2.341,0.95-3.101c0.633-0.76,1.483-1.14,2.55-1.14
	c0.853,0,1.713,0.207,2.58,0.62l-0.54,2.02c-0.2-0.106-0.437-0.196-0.71-0.27c-0.273-0.073-0.523-0.11-0.75-0.11
	c-0.934,0-1.4,0.627-1.4,1.88v1.4h2.56v2.06h-2.56v7.2H85.985z"/>
<path d="M99.226,376.323c-0.36,0.16-0.803,0.32-1.33,0.48c-0.527,0.159-1.077,0.239-1.65,0.239c-0.374,0-0.724-0.047-1.05-0.14
	c-0.327-0.093-0.614-0.243-0.86-0.45c-0.247-0.206-0.443-0.473-0.59-0.8c-0.147-0.326-0.22-0.724-0.22-1.19v-6.02h-1.36v-2.061h1.36
	v-3.399h2.68v3.399h2.22v2.061h-2.22v5.12c0,0.373,0.1,0.637,0.3,0.79c0.2,0.153,0.44,0.229,0.72,0.229s0.553-0.046,0.82-0.14
	c0.267-0.093,0.48-0.173,0.64-0.24L99.226,376.323z"/>
<path d="M105.445,377.063c-0.84,0-1.6-0.144-2.28-0.431c-0.68-0.286-1.26-0.676-1.74-1.17c-0.48-0.493-0.85-1.066-1.11-1.72
	c-0.26-0.653-0.39-1.34-0.39-2.06c0-0.747,0.126-1.45,0.38-2.11s0.62-1.24,1.1-1.74s1.063-0.896,1.75-1.189
	c0.687-0.293,1.457-0.44,2.31-0.44c0.853,0,1.617,0.147,2.29,0.44c0.673,0.293,1.247,0.687,1.72,1.18s0.833,1.067,1.08,1.72
	c0.247,0.653,0.37,1.334,0.37,2.04c0,0.174-0.003,0.34-0.01,0.5s-0.023,0.294-0.05,0.4h-8.1c0.04,0.413,0.14,0.78,0.3,1.1
	c0.16,0.32,0.366,0.594,0.62,0.82s0.54,0.4,0.86,0.52c0.32,0.12,0.653,0.181,1,0.181c0.533,0,1.037-0.13,1.51-0.391
	c0.473-0.26,0.796-0.603,0.97-1.029l2.3,0.64c-0.387,0.8-1.003,1.457-1.85,1.97C107.628,376.807,106.618,377.063,105.445,377.063z
	 M108.165,370.743c-0.067-0.786-0.356-1.416-0.87-1.89c-0.514-0.474-1.137-0.71-1.87-0.71c-0.36,0-0.697,0.063-1.01,0.189
	c-0.313,0.127-0.59,0.304-0.83,0.53c-0.24,0.227-0.437,0.5-0.59,0.82c-0.153,0.319-0.243,0.673-0.27,1.06H108.165z"/>
<path d="M118.805,368.703c-0.813,0.014-1.54,0.17-2.18,0.47c-0.64,0.301-1.1,0.75-1.38,1.351v6.34h-2.68v-10.48h2.46v2.24
	c0.36-0.72,0.83-1.3,1.41-1.74c0.58-0.439,1.19-0.659,1.83-0.659c0.146,0,0.257,0.003,0.33,0.01s0.143,0.017,0.21,0.03V368.703z"/>
<path d="M132.865,374.443v2.42h-8.12v-2.42h2.84v-6.061c-0.12,0.16-0.307,0.324-0.56,0.49c-0.253,0.167-0.534,0.323-0.84,0.471
	c-0.307,0.146-0.627,0.267-0.96,0.359c-0.333,0.094-0.627,0.141-0.88,0.141v-2.5c0.24,0,0.533-0.077,0.88-0.23
	c0.346-0.153,0.687-0.337,1.02-0.55c0.333-0.213,0.627-0.423,0.88-0.63c0.253-0.207,0.406-0.37,0.46-0.49h2.74v9H132.865z"/>
<path d="M143.785,362.703h2.54l1.6,4.7l1.6-4.7h2.56l-2.42,6.46l1.8,4.54l4.02-11.04h3l-5.78,14.2h-2.32l-2.46-5.96l-2.46,5.96
	h-2.32l-5.76-14.2h2.98l4.04,11.04l1.76-4.54L143.785,362.703z"/>
<path d="M164.545,377.063c-0.84,0-1.6-0.144-2.28-0.431c-0.68-0.286-1.26-0.676-1.74-1.17c-0.48-0.493-0.85-1.066-1.11-1.72
	c-0.26-0.653-0.39-1.34-0.39-2.06c0-0.747,0.126-1.45,0.38-2.11s0.62-1.24,1.1-1.74s1.063-0.896,1.75-1.189
	c0.687-0.293,1.457-0.44,2.31-0.44c0.853,0,1.617,0.147,2.29,0.44c0.673,0.293,1.247,0.687,1.72,1.18s0.833,1.067,1.08,1.72
	c0.247,0.653,0.37,1.334,0.37,2.04c0,0.174-0.003,0.34-0.01,0.5s-0.023,0.294-0.05,0.4h-8.1c0.04,0.413,0.14,0.78,0.3,1.1
	c0.16,0.32,0.366,0.594,0.62,0.82s0.54,0.4,0.86,0.52c0.32,0.12,0.653,0.181,1,0.181c0.533,0,1.037-0.13,1.51-0.391
	c0.473-0.26,0.796-0.603,0.97-1.029l2.3,0.64c-0.387,0.8-1.003,1.457-1.85,1.97C166.728,376.807,165.718,377.063,164.545,377.063z
	 M167.265,370.743c-0.067-0.786-0.356-1.416-0.87-1.89c-0.514-0.474-1.137-0.71-1.87-0.71c-0.36,0-0.697,0.063-1.01,0.189
	c-0.313,0.127-0.59,0.304-0.83,0.53c-0.24,0.227-0.437,0.5-0.59,0.82c-0.153,0.319-0.243,0.673-0.27,1.06H167.265z"/>
<path d="M176.545,377.063c-0.84,0-1.6-0.144-2.28-0.431c-0.68-0.286-1.26-0.676-1.74-1.17c-0.48-0.493-0.85-1.066-1.11-1.72
	c-0.26-0.653-0.39-1.34-0.39-2.06c0-0.747,0.126-1.45,0.38-2.11s0.62-1.24,1.1-1.74s1.063-0.896,1.75-1.189
	c0.687-0.293,1.457-0.44,2.31-0.44c0.853,0,1.617,0.147,2.29,0.44c0.673,0.293,1.247,0.687,1.72,1.18s0.833,1.067,1.08,1.72
	c0.247,0.653,0.37,1.334,0.37,2.04c0,0.174-0.003,0.34-0.01,0.5s-0.023,0.294-0.05,0.4h-8.1c0.04,0.413,0.14,0.78,0.3,1.1
	c0.16,0.32,0.366,0.594,0.62,0.82s0.54,0.4,0.86,0.52c0.32,0.12,0.653,0.181,1,0.181c0.533,0,1.037-0.13,1.51-0.391
	c0.473-0.26,0.796-0.603,0.97-1.029l2.3,0.64c-0.387,0.8-1.003,1.457-1.85,1.97C178.728,376.807,177.718,377.063,176.545,377.063z
	 M179.265,370.743c-0.067-0.786-0.356-1.416-0.87-1.89c-0.514-0.474-1.137-0.71-1.87-0.71c-0.36,0-0.697,0.063-1.01,0.189
	c-0.313,0.127-0.59,0.304-0.83,0.53c-0.24,0.227-0.437,0.5-0.59,0.82c-0.153,0.319-0.243,0.673-0.27,1.06H179.265z"/>
<path d="M190.825,376.863l-3.04-4.54l-1.44,1.42v3.12h-2.68v-14.6h2.68v8.859l4.2-4.72h2.86l-3.92,4.44l4.2,6.02H190.825z"/>
<path d="M218.519,376.863l5.6-14.2h2.24l5.58,14.2h-2.92l-1.3-3.54h-4.98l-1.3,3.54H218.519z M225.238,365.644l-2.04,5.739h4.02
	L225.238,365.644z"/>
<path d="M233.518,376.863v-7.2h-1.36v-2.06h1.36v-1.3c0-1.307,0.317-2.341,0.95-3.101c0.633-0.76,1.483-1.14,2.55-1.14
	c0.853,0,1.713,0.207,2.58,0.62l-0.54,2.02c-0.2-0.106-0.437-0.196-0.71-0.27c-0.273-0.073-0.523-0.11-0.75-0.11
	c-0.934,0-1.4,0.627-1.4,1.88v1.4h2.56v2.06h-2.56v7.2H233.518z"/>
<path d="M246.758,376.323c-0.36,0.16-0.803,0.32-1.33,0.48c-0.527,0.159-1.077,0.239-1.65,0.239c-0.374,0-0.724-0.047-1.05-0.14
	c-0.327-0.093-0.614-0.243-0.86-0.45c-0.247-0.206-0.443-0.473-0.59-0.8c-0.147-0.326-0.22-0.724-0.22-1.19v-6.02h-1.36v-2.061h1.36
	v-3.399h2.68v3.399h2.22v2.061h-2.22v5.12c0,0.373,0.1,0.637,0.3,0.79c0.2,0.153,0.44,0.229,0.72,0.229s0.553-0.046,0.82-0.14
	c0.267-0.093,0.48-0.173,0.64-0.24L246.758,376.323z"/>
<path d="M252.978,377.063c-0.84,0-1.6-0.144-2.28-0.431c-0.68-0.286-1.26-0.676-1.74-1.17c-0.48-0.493-0.85-1.066-1.11-1.72
	c-0.26-0.653-0.39-1.34-0.39-2.06c0-0.747,0.126-1.45,0.38-2.11s0.62-1.24,1.1-1.74s1.063-0.896,1.75-1.189
	c0.687-0.293,1.457-0.44,2.31-0.44c0.853,0,1.617,0.147,2.29,0.44c0.673,0.293,1.247,0.687,1.72,1.18s0.833,1.067,1.08,1.72
	c0.247,0.653,0.37,1.334,0.37,2.04c0,0.174-0.003,0.34-0.01,0.5s-0.023,0.294-0.05,0.4h-8.1c0.04,0.413,0.14,0.78,0.3,1.1
	c0.16,0.32,0.366,0.594,0.62,0.82s0.54,0.4,0.86,0.52c0.32,0.12,0.653,0.181,1,0.181c0.533,0,1.037-0.13,1.51-0.391
	c0.473-0.26,0.796-0.603,0.97-1.029l2.3,0.64c-0.387,0.8-1.003,1.457-1.85,1.97C255.161,376.807,254.151,377.063,252.978,377.063z
	 M255.698,370.743c-0.067-0.786-0.356-1.416-0.87-1.89c-0.514-0.474-1.137-0.71-1.87-0.71c-0.36,0-0.697,0.063-1.01,0.189
	c-0.313,0.127-0.59,0.304-0.83,0.53c-0.24,0.227-0.437,0.5-0.59,0.82c-0.153,0.319-0.243,0.673-0.27,1.06H255.698z"/>
<path d="M266.338,368.703c-0.813,0.014-1.54,0.17-2.18,0.47c-0.64,0.301-1.1,0.75-1.38,1.351v6.34h-2.68v-10.48h2.46v2.24
	c0.36-0.72,0.83-1.3,1.41-1.74c0.58-0.439,1.19-0.659,1.83-0.659c0.146,0,0.257,0.003,0.33,0.01s0.143,0.017,0.21,0.03V368.703z"/>
<path d="M282.218,372.663c0,0.667-0.137,1.267-0.41,1.8c-0.273,0.534-0.647,0.994-1.12,1.381s-1.023,0.683-1.65,0.89
	c-0.627,0.206-1.293,0.31-2,0.31c-0.707,0-1.37-0.109-1.99-0.33c-0.62-0.22-1.163-0.529-1.63-0.93s-0.837-0.873-1.11-1.42
	c-0.273-0.547-0.41-1.146-0.41-1.8c0-0.4,0.067-0.771,0.2-1.11c0.133-0.34,0.307-0.649,0.52-0.93c0.213-0.28,0.453-0.526,0.72-0.74
	c0.267-0.213,0.533-0.387,0.8-0.52c-0.507-0.24-0.934-0.601-1.28-1.08c-0.347-0.48-0.52-1.007-0.52-1.58
	c0-0.641,0.143-1.203,0.43-1.69c0.287-0.486,0.66-0.896,1.12-1.229s0.966-0.587,1.52-0.761c0.553-0.173,1.103-0.26,1.65-0.26
	c0.546,0,1.1,0.084,1.66,0.25c0.56,0.167,1.07,0.417,1.53,0.75c0.46,0.334,0.833,0.743,1.12,1.23c0.287,0.486,0.43,1.05,0.43,1.689
	c0,0.573-0.177,1.107-0.53,1.601c-0.354,0.493-0.783,0.854-1.29,1.08c0.28,0.146,0.557,0.33,0.83,0.55
	c0.273,0.22,0.513,0.474,0.72,0.76c0.207,0.287,0.374,0.604,0.5,0.95C282.155,371.87,282.218,372.25,282.218,372.663z
	 M279.498,372.503c0-0.333-0.07-0.633-0.21-0.899s-0.323-0.49-0.55-0.67c-0.227-0.181-0.487-0.316-0.78-0.41
	c-0.293-0.094-0.593-0.141-0.9-0.141c-0.32,0-0.627,0.051-0.92,0.15c-0.293,0.1-0.554,0.243-0.78,0.43
	c-0.227,0.188-0.407,0.41-0.54,0.67c-0.133,0.261-0.2,0.551-0.2,0.87c0,0.32,0.07,0.61,0.21,0.87s0.323,0.483,0.55,0.67
	c0.227,0.188,0.49,0.33,0.79,0.431c0.3,0.1,0.603,0.149,0.91,0.149c0.32,0,0.623-0.053,0.91-0.16
	c0.286-0.106,0.543-0.253,0.77-0.439c0.227-0.187,0.406-0.41,0.54-0.67S279.498,372.811,279.498,372.503z M275.058,366.684
	c0,0.279,0.06,0.523,0.18,0.729c0.12,0.207,0.276,0.38,0.47,0.521c0.193,0.14,0.407,0.246,0.64,0.319
	c0.233,0.074,0.47,0.11,0.71,0.11c0.24,0,0.48-0.036,0.72-0.11c0.24-0.073,0.457-0.183,0.65-0.33c0.193-0.146,0.35-0.322,0.47-0.529
	s0.18-0.45,0.18-0.73c0-0.493-0.2-0.887-0.6-1.18s-0.874-0.44-1.42-0.44c-0.547,0-1.017,0.15-1.41,0.45
	C275.254,365.793,275.058,366.19,275.058,366.684z"/>
<path d="M293.578,362.703h2.541l1.6,4.7l1.6-4.7h2.561l-2.42,6.46l1.8,4.54l4.021-11.04h3l-5.781,14.2h-2.319l-2.46-5.96l-2.46,5.96
	h-2.319l-5.761-14.2h2.979l4.041,11.04l1.76-4.54L293.578,362.703z"/>
<path d="M314.337,377.063c-0.84,0-1.6-0.144-2.279-0.431c-0.68-0.286-1.26-0.676-1.74-1.17c-0.48-0.493-0.85-1.066-1.109-1.72
	c-0.261-0.653-0.391-1.34-0.391-2.06c0-0.747,0.127-1.45,0.38-2.11s0.62-1.24,1.101-1.74c0.479-0.5,1.063-0.896,1.75-1.189
	c0.686-0.293,1.456-0.44,2.31-0.44c0.853,0,1.616,0.147,2.29,0.44c0.673,0.293,1.246,0.687,1.72,1.18s0.833,1.067,1.08,1.72
	c0.247,0.653,0.37,1.334,0.37,2.04c0,0.174-0.004,0.34-0.01,0.5c-0.008,0.16-0.023,0.294-0.051,0.4h-8.1
	c0.04,0.413,0.141,0.78,0.301,1.1c0.159,0.32,0.365,0.594,0.619,0.82s0.54,0.4,0.86,0.52c0.319,0.12,0.653,0.181,1,0.181
	c0.532,0,1.036-0.13,1.51-0.391c0.474-0.26,0.796-0.603,0.97-1.029l2.301,0.64c-0.387,0.8-1.004,1.457-1.851,1.97
	C316.521,376.807,315.511,377.063,314.337,377.063z M317.058,370.743c-0.067-0.786-0.357-1.416-0.87-1.89
	c-0.514-0.474-1.138-0.71-1.87-0.71c-0.359,0-0.697,0.063-1.01,0.189c-0.314,0.127-0.59,0.304-0.83,0.53s-0.438,0.5-0.59,0.82
	c-0.154,0.319-0.244,0.673-0.271,1.06H317.058z"/>
<path d="M326.337,377.063c-0.84,0-1.6-0.144-2.279-0.431c-0.68-0.286-1.26-0.676-1.74-1.17c-0.48-0.493-0.85-1.066-1.109-1.72
	c-0.261-0.653-0.391-1.34-0.391-2.06c0-0.747,0.127-1.45,0.38-2.11s0.62-1.24,1.101-1.74c0.479-0.5,1.063-0.896,1.75-1.189
	c0.686-0.293,1.456-0.44,2.31-0.44c0.853,0,1.616,0.147,2.29,0.44c0.673,0.293,1.246,0.687,1.72,1.18s0.833,1.067,1.08,1.72
	c0.247,0.653,0.37,1.334,0.37,2.04c0,0.174-0.004,0.34-0.01,0.5c-0.008,0.16-0.023,0.294-0.051,0.4h-8.1
	c0.04,0.413,0.141,0.78,0.301,1.1c0.159,0.32,0.365,0.594,0.619,0.82s0.54,0.4,0.86,0.52c0.319,0.12,0.653,0.181,1,0.181
	c0.532,0,1.036-0.13,1.51-0.391c0.474-0.26,0.796-0.603,0.97-1.029l2.301,0.64c-0.387,0.8-1.004,1.457-1.851,1.97
	C328.521,376.807,327.511,377.063,326.337,377.063z M329.058,370.743c-0.067-0.786-0.357-1.416-0.87-1.89
	c-0.514-0.474-1.138-0.71-1.87-0.71c-0.359,0-0.697,0.063-1.01,0.189c-0.314,0.127-0.59,0.304-0.83,0.53s-0.438,0.5-0.59,0.82
	c-0.154,0.319-0.244,0.673-0.271,1.06H329.058z"/>
<path d="M340.617,376.863l-3.039-4.54l-1.44,1.42v3.12h-2.68v-14.6h2.68v8.859l4.2-4.72h2.859l-3.92,4.44l4.201,6.02H340.617z"/>
<path d="M348.637,377.063c-0.427,0-0.87-0.033-1.33-0.101c-0.46-0.066-0.909-0.159-1.35-0.279s-0.86-0.267-1.261-0.44
	c-0.399-0.173-0.753-0.366-1.06-0.58l1.08-1.819c1.333,0.866,2.62,1.3,3.86,1.3c0.56,0,1-0.101,1.32-0.3
	c0.319-0.2,0.479-0.487,0.479-0.86s-0.19-0.65-0.57-0.83s-1.017-0.377-1.909-0.59c-0.681-0.16-1.261-0.327-1.74-0.5
	c-0.48-0.173-0.867-0.373-1.16-0.601c-0.293-0.227-0.507-0.486-0.641-0.779c-0.133-0.293-0.199-0.641-0.199-1.04
	c0-0.533,0.106-1.014,0.32-1.44c0.213-0.427,0.51-0.79,0.889-1.09c0.381-0.3,0.827-0.53,1.341-0.69
	c0.513-0.159,1.069-0.239,1.67-0.239c0.747,0,1.489,0.116,2.229,0.35s1.431,0.55,2.07,0.95l-1.1,1.66
	c-0.587-0.373-1.141-0.644-1.66-0.811c-0.52-0.166-1.04-0.25-1.561-0.25c-0.479,0-0.883,0.094-1.209,0.28
	c-0.328,0.187-0.49,0.487-0.49,0.9c0,0.359,0.156,0.619,0.47,0.779s0.87,0.34,1.67,0.54c0.747,0.188,1.384,0.374,1.91,0.561
	s0.96,0.399,1.3,0.64s0.586,0.517,0.74,0.83c0.152,0.313,0.23,0.69,0.23,1.13c0,0.507-0.104,0.967-0.311,1.38
	c-0.207,0.414-0.497,0.764-0.87,1.05c-0.374,0.287-0.83,0.507-1.37,0.66S349.291,377.063,348.637,377.063z"/>
<path d="M12.72,353.141c0,0.833-0.16,1.608-0.48,2.328c-0.32,0.721-0.756,1.349-1.308,1.885c-0.552,0.536-1.208,0.956-1.968,1.26
	c-0.76,0.304-1.58,0.456-2.46,0.456c-0.96,0-1.828-0.177-2.604-0.528c-0.776-0.352-1.437-0.864-1.98-1.536
	c-0.544-0.672-0.964-1.491-1.26-2.46c-0.296-0.968-0.444-2.067-0.444-3.3c0-1.552,0.156-2.924,0.468-4.116
	c0.312-1.191,0.752-2.191,1.32-3c0.568-0.808,1.26-1.42,2.076-1.836c0.816-0.416,1.728-0.624,2.736-0.624
	c1.072,0,2.064,0.232,2.976,0.696c0.912,0.464,1.68,1.128,2.304,1.992l-1.848,2.016c-0.384-0.607-0.88-1.08-1.488-1.416
	c-0.608-0.336-1.272-0.504-1.992-0.504c-1.072,0-1.924,0.424-2.556,1.272c-0.632,0.848-0.964,2.048-0.996,3.6
	c0.32-0.576,0.792-1.032,1.416-1.368s1.344-0.504,2.16-0.504c0.832,0,1.612,0.144,2.34,0.432s1.356,0.688,1.884,1.2
	c0.528,0.513,0.944,1.116,1.248,1.813C12.567,351.593,12.72,352.341,12.72,353.141z M6.504,356.357c0.432,0,0.836-0.084,1.212-0.252
	s0.708-0.4,0.996-0.696s0.516-0.64,0.684-1.032c0.168-0.392,0.252-0.804,0.252-1.236c0-0.432-0.084-0.835-0.252-1.212
	c-0.168-0.375-0.393-0.708-0.672-0.996c-0.28-0.287-0.612-0.512-0.996-0.672c-0.384-0.159-0.792-0.239-1.224-0.239
	s-0.84,0.08-1.224,0.239c-0.384,0.16-0.716,0.385-0.996,0.672c-0.28,0.288-0.504,0.621-0.672,0.996
	c-0.168,0.377-0.252,0.78-0.252,1.212c0,0.433,0.084,0.845,0.252,1.236c0.168,0.393,0.396,0.732,0.684,1.021s0.62,0.52,0.996,0.695
	C5.667,356.27,6.072,356.357,6.504,356.357z"/>
<path d="M27.264,351.797c0,1.057-0.156,2.028-0.468,2.916c-0.312,0.889-0.744,1.656-1.296,2.305
	c-0.552,0.647-1.208,1.151-1.968,1.512c-0.76,0.359-1.58,0.54-2.46,0.54c-0.896,0-1.724-0.181-2.484-0.54
	c-0.76-0.36-1.416-0.864-1.968-1.512c-0.552-0.648-0.984-1.416-1.296-2.305c-0.312-0.888-0.468-1.859-0.468-2.916
	c0-1.056,0.156-2.027,0.468-2.916c0.312-0.888,0.744-1.655,1.296-2.304c0.552-0.648,1.208-1.156,1.968-1.524
	c0.76-0.367,1.587-0.552,2.484-0.552c0.88,0,1.7,0.185,2.46,0.552c0.76,0.368,1.416,0.876,1.968,1.524
	c0.552,0.648,0.984,1.416,1.296,2.304C27.108,349.77,27.264,350.741,27.264,351.797z M24.024,351.797
	c0-0.64-0.072-1.228-0.216-1.764s-0.348-0.996-0.612-1.38c-0.264-0.384-0.576-0.68-0.936-0.889c-0.36-0.207-0.756-0.312-1.188-0.312
	c-0.448,0-0.856,0.104-1.224,0.312c-0.368,0.209-0.684,0.505-0.948,0.889c-0.264,0.384-0.468,0.844-0.612,1.38
	s-0.216,1.124-0.216,1.764c0,0.641,0.072,1.225,0.216,1.752c0.144,0.528,0.348,0.984,0.612,1.368
	c0.264,0.384,0.58,0.681,0.948,0.888c0.368,0.209,0.776,0.313,1.224,0.313c0.432,0,0.828-0.104,1.188-0.313
	c0.36-0.207,0.672-0.504,0.936-0.888c0.264-0.384,0.468-0.84,0.612-1.368C23.952,353.021,24.024,352.438,24.024,351.797z"/>
<path d="M12.72,182.807c0,0.833-0.16,1.608-0.48,2.328c-0.32,0.721-0.756,1.349-1.308,1.885c-0.552,0.536-1.208,0.956-1.968,1.26
	c-0.76,0.304-1.58,0.456-2.46,0.456c-0.96,0-1.828-0.177-2.604-0.528c-0.776-0.352-1.437-0.864-1.98-1.536
	c-0.544-0.672-0.964-1.491-1.26-2.46c-0.296-0.968-0.444-2.067-0.444-3.3c0-1.552,0.156-2.924,0.468-4.116
	c0.312-1.191,0.752-2.191,1.32-3c0.568-0.808,1.26-1.42,2.076-1.836c0.816-0.416,1.728-0.624,2.736-0.624
	c1.072,0,2.064,0.232,2.976,0.696c0.912,0.464,1.68,1.128,2.304,1.992l-1.848,2.016c-0.384-0.607-0.88-1.08-1.488-1.416
	c-0.608-0.336-1.272-0.504-1.992-0.504c-1.072,0-1.924,0.424-2.556,1.272c-0.632,0.848-0.964,2.048-0.996,3.6
	c0.32-0.576,0.792-1.032,1.416-1.368s1.344-0.504,2.16-0.504c0.832,0,1.612,0.144,2.34,0.432s1.356,0.688,1.884,1.2
	c0.528,0.513,0.944,1.116,1.248,1.813C12.567,181.259,12.72,182.007,12.72,182.807z M6.504,186.023c0.432,0,0.836-0.084,1.212-0.252
	s0.708-0.4,0.996-0.696s0.516-0.64,0.684-1.032c0.168-0.392,0.252-0.804,0.252-1.236c0-0.432-0.084-0.835-0.252-1.212
	c-0.168-0.375-0.393-0.708-0.672-0.996c-0.28-0.287-0.612-0.512-0.996-0.672c-0.384-0.159-0.792-0.239-1.224-0.239
	s-0.84,0.08-1.224,0.239c-0.384,0.16-0.716,0.385-0.996,0.672c-0.28,0.288-0.504,0.621-0.672,0.996
	c-0.168,0.377-0.252,0.78-0.252,1.212c0,0.433,0.084,0.845,0.252,1.236c0.168,0.393,0.396,0.732,0.684,1.021s0.62,0.52,0.996,0.695
	C5.667,185.936,6.072,186.023,6.504,186.023z"/>
<path d="M20.616,180.839c0.8,0,1.544,0.132,2.232,0.396c0.688,0.264,1.284,0.636,1.788,1.116c0.504,0.479,0.896,1.056,1.176,1.728
	s0.42,1.416,0.42,2.232c0,0.863-0.16,1.647-0.48,2.352c-0.32,0.704-0.76,1.308-1.32,1.813c-0.56,0.504-1.224,0.896-1.992,1.176
	c-0.768,0.279-1.6,0.42-2.496,0.42c-1.248,0-2.364-0.265-3.348-0.792c-0.984-0.528-1.732-1.248-2.244-2.16l1.848-1.92
	c0.464,0.624,1.028,1.12,1.692,1.488c0.664,0.367,1.356,0.552,2.076,0.552c0.864,0,1.572-0.261,2.124-0.78
	c0.552-0.52,0.828-1.212,0.828-2.076c0-0.831-0.26-1.504-0.78-2.016s-1.18-0.769-1.98-0.769c-0.528,0-1.02,0.12-1.476,0.36
	s-0.82,0.568-1.092,0.984h-2.808c0-0.048,0.032-0.229,0.096-0.54c0.063-0.313,0.144-0.712,0.24-1.2
	c0.096-0.488,0.2-1.032,0.312-1.632c0.112-0.601,0.232-1.212,0.36-1.836c0.288-1.472,0.608-3.12,0.96-4.944h8.4v2.928H19.08
	l-0.672,3.816c0.192-0.208,0.472-0.376,0.84-0.504S20.072,180.839,20.616,180.839z"/>
<path d="M7.752,3.264H0V0.336h12.816l-8.472,17.04H0.72L7.752,3.264z"/>
<path d="M26.472,7.296c0,1.057-0.156,2.028-0.468,2.916c-0.312,0.889-0.744,1.656-1.296,2.305c-0.552,0.647-1.208,1.151-1.968,1.512
	c-0.76,0.359-1.58,0.54-2.46,0.54c-0.896,0-1.724-0.181-2.484-0.54c-0.76-0.36-1.416-0.864-1.968-1.512
	c-0.552-0.648-0.984-1.416-1.296-2.305c-0.312-0.888-0.468-1.859-0.468-2.916c0-1.056,0.156-2.027,0.468-2.916
	c0.312-0.888,0.744-1.655,1.296-2.304c0.552-0.648,1.208-1.156,1.968-1.524C18.556,0.185,19.383,0,20.28,0
	c0.88,0,1.7,0.185,2.46,0.552c0.76,0.368,1.416,0.876,1.968,1.524c0.552,0.648,0.984,1.416,1.296,2.304
	C26.316,5.269,26.472,6.24,26.472,7.296z M23.232,7.296c0-0.64-0.072-1.228-0.216-1.764s-0.348-0.996-0.612-1.38
	c-0.264-0.384-0.576-0.68-0.936-0.889c-0.36-0.207-0.756-0.312-1.188-0.312c-0.448,0-0.856,0.104-1.224,0.312
	c-0.368,0.209-0.684,0.505-0.948,0.889c-0.264,0.384-0.468,0.844-0.612,1.38S17.28,6.656,17.28,7.296
	c0,0.641,0.072,1.225,0.216,1.752c0.144,0.528,0.348,0.984,0.612,1.368c0.264,0.384,0.58,0.681,0.948,0.888
	c0.368,0.209,0.776,0.313,1.224,0.313c0.432,0,0.828-0.104,1.188-0.313c0.36-0.207,0.672-0.504,0.936-0.888
	c0.264-0.384,0.468-0.84,0.612-1.368C23.16,8.521,23.232,7.937,23.232,7.296z"/>
</svg>
